<svg xmlns:xlink="http://www.w3.org/1999/xlink" xmlns="http://www.w3.org/2000/svg" class="strategy-sketch-path-1" width="230" height="134" fill="none" viewBox="0 0 230 134" preserveAspectRatio="none">
<path d="M10 25.9355C18.5 21.266 20.8707 19.9053 29.968 16.173C42.5012 11.0312 56.0106 11.8857 69.3085 11.8857C86.1833 11.8857 104.199 14.8053 117.944 25.6051C126.871 32.619 132.508 39.5429 134.476 51.0204C136.056 60.2398 138.357 71.0643 134.819 80.1056C132.69 85.546 126.533 90.478 121.5 90.9355C115.296 91.4995 108.734 92.337 105 85.9355C100.933 78.9636 106.721 68.6751 112.5 64.9355C120.248 59.9219 128.67 55.4355 137.5 55.4355C152.272 55.4355 167.625 66.3328 179.5 75.8325C189.5 83.8325 194.985 91.3048 197.5 95.8325C200 100.333 201.66 101.419 204.5 111.833C205.182 114.333 207.5 122.833 207.712 124.248C207.712 124.408 203.344 121.813 201.66 120.425C199.399 118.562 197.5 117.826 195.5 116.833C193.472 115.826 190 112.833 188 112.333C187.156 112.122 202 120.833 208 123.833C209.5 121.833 210.5 119.833 212.5 116.833C213.677 115.067 217 110.833 220 107.833" stroke-linecap="round" stroke-linejoin="round" stroke="#FFFFFF" fill="none" stroke-width="2.578px"></path>
</svg>