<svg xmlns:xlink="http://www.w3.org/1999/xlink" xmlns="http://www.w3.org/2000/svg" class="strategy-sketch-path-2" width="230" height="134" fill="none" viewBox="0 0 230 134" preserveAspectRatio="none">
<path d="M219.36 17.1993C219.006 16.4914 214.909 15.59 213.801 15.5317C209.624 15.3118 205.295 14.1842 201.108 13.5861C189.734 11.9612 177.606 12.3757 166.18 13.1846C155.481 13.9421 144.868 14.4116 134.309 16.6743C121.742 19.3673 109.21 24.1555 97.3736 29.1818C90.7444 31.9969 83.7225 34.8108 77.6088 38.6318C73.0482 41.4822 69.1444 45.2812 65.0087 48.6995C43.6854 66.3239 27.3717 93.2898 25.3555 121.15C24.2391 118.308 21.4909 116.548 19.8259 114.033C18.5433 112.095 16.993 110.261 15.4726 108.507C14.57 107.465 13.9753 106.314 12.9878 105.326C12.2757 104.614 11.3185 103.936 11 102.98L25.6881 121.15C32 114.5 35 113 38.5 111C42 109 44.5 105.5 46 105" stroke-linecap="round" stroke-linejoin="round" stroke="#FFFFFF" fill="none" stroke-width="2.578px"></path>
</svg>