<svg xmlns:xlink="http://www.w3.org/1999/xlink" xmlns="http://www.w3.org/2000/svg" class="bezier-point point-1" width="20" height="20" viewBox="-2 -2 20 20">
<path d="M0 8C0 5.19974 0 3.79961 0.544967 2.73005C1.02433 1.78924 1.78924 1.02433 2.73005 0.544967C3.79961 0 5.19974 0 8 0C10.8003 0 12.2004 0 13.27 0.544967C14.2108 1.02433 14.9757 1.78924 15.455 2.73005C16 3.79961 16 5.19974 16 8C16 10.8003 16 12.2004 15.455 13.27C14.9757 14.2108 14.2108 14.9757 13.27 15.455C12.2004 16 10.8003 16 8 16C5.19974 16 3.79961 16 2.73005 15.455C1.78924 14.9757 1.02433 14.2108 0.544967 13.27C0 12.2004 0 10.8003 0 8Z" stroke="#B4C8E1" fill="#B4C8E1" stroke-width="2px"></path>
</svg>