<svg xmlns="http://www.w3.org/2000/svg" xmlns:xlink="http://www.w3.org/1999/xlink" viewBox="0 0 216 216" width="216" height="216" preserveAspectRatio="xMidYMid meet" style="width: 100%; height: 100%; transform: translate3d(0px, 0px, 0px); content-visibility: visible;"><defs><clipPath id="__lottie_element_29"><rect width="216" height="216" x="0" y="0"></rect></clipPath><g id="__lottie_element_34"><g transform="matrix(0.20000000298023224,0,0,0.20000000298023224,108,108)" opacity="1" style="display: block;"><g opacity="1" transform="matrix(1,0,0,1,0,0)"><path fill="rgb(0,97,255)" fill-opacity="1" d=" M-36.486000061035156,145.76600646972656 C-36.486000061035156,145.76600646972656 -123.2020034790039,65.91799926757812 -123.2020034790039,65.91799926757812 C-123.2020034790039,65.91799926757812 -132.3249969482422,-22.74799919128418 -132.3249969482422,-22.74799919128418 C-132.3249969482422,-22.74799919128418 0,-540 0,-540 C0,-540 540,-540 540,-540 C540,-540 540,0 540,0 C540,0 540,540 540,540 C540,540 -36.486000061035156,145.76600646972656 -36.486000061035156,145.76600646972656z"></path></g></g></g><g id="__lottie_element_40"><g transform="matrix(0.20000000298023224,0,0,0.20000000298023224,108,108)" opacity="1" style="display: none;"><g opacity="1" transform="matrix(1,0,0,1,0,0)"><path fill="rgb(0,97,255)" fill-opacity="1" d=" M-196.75999450683594,21.44099998474121 C-196.75999450683594,21.44099998474121 -196.75999450683594,21.44099998474121 -196.75999450683594,21.44099998474121 C-196.75999450683594,21.44099998474121 -97.28199768066406,83.90699768066406 -97.28199768066406,83.90699768066406 C-97.28199768066406,83.90699768066406 540,0 540,0 C540,0 540,-540 540,-540 C540,-540 -540,-540 -540,-540 C-540,-540 -540,0 -540,0 C-540,0 -196.75999450683594,21.44099998474121 -196.75999450683594,21.44099998474121z"></path></g></g></g><g id="__lottie_element_46"><g transform="matrix(0.20000000298023224,0,0,0.20000000298023224,108,108)" opacity="1" style="display: block;"><g opacity="1" transform="matrix(1,0,0,1,0,0)"><path fill="rgb(0,97,255)" fill-opacity="1" d=" M-540,0 C-540,0 -59.51900100708008,112.8219985961914 -59.51900100708008,112.8219985961914 C-59.51900100708008,112.8219985961914 100.73400115966797,105.73799896240234 100.73400115966797,105.73799896240234 C100.73400115966797,105.73799896240234 106.95899963378906,245.27099609375 106.95899963378906,245.27099609375 C106.95899963378906,245.27099609375 540,0 540,0 C540,0 540,-540 540,-540 C540,-540 -540,-540 -540,-540 C-540,-540 -540,0 -540,0z"></path></g></g></g><mask id="__lottie_element_46_1" mask-type="alpha"><g><g transform="matrix(0.20000000298023224,0,0,0.20000000298023224,108,108)" opacity="1" style="display: block;"><g opacity="1" transform="matrix(1,0,0,1,0,0)"><path fill="rgb(0,97,255)" fill-opacity="1" d=" M-540,0 C-540,0 -59.51900100708008,112.8219985961914 -59.51900100708008,112.8219985961914 C-59.51900100708008,112.8219985961914 100.73400115966797,105.73799896240234 100.73400115966797,105.73799896240234 C100.73400115966797,105.73799896240234 106.95899963378906,245.27099609375 106.95899963378906,245.27099609375 C106.95899963378906,245.27099609375 540,0 540,0 C540,0 540,-540 540,-540 C540,-540 -540,-540 -540,-540 C-540,-540 -540,0 -540,0z"></path></g></g></g></mask><mask id="__lottie_element_40_1" mask-type="alpha"><g><g transform="matrix(0.20000000298023224,0,0,0.20000000298023224,108,108)" opacity="1" style="display: none;"><g opacity="1" transform="matrix(1,0,0,1,0,0)"><path fill="rgb(0,97,255)" fill-opacity="1" d=" M-196.75999450683594,21.44099998474121 C-196.75999450683594,21.44099998474121 -196.75999450683594,21.44099998474121 -196.75999450683594,21.44099998474121 C-196.75999450683594,21.44099998474121 -97.28199768066406,83.90699768066406 -97.28199768066406,83.90699768066406 C-97.28199768066406,83.90699768066406 540,0 540,0 C540,0 540,-540 540,-540 C540,-540 -540,-540 -540,-540 C-540,-540 -540,0 -540,0 C-540,0 -196.75999450683594,21.44099998474121 -196.75999450683594,21.44099998474121z"></path></g></g></g></mask><mask id="__lottie_element_34_1" mask-type="alpha"><g><g transform="matrix(0.20000000298023224,0,0,0.20000000298023224,108,108)" opacity="1" style="display: block;"><g opacity="1" transform="matrix(1,0,0,1,0,0)"><path fill="rgb(0,97,255)" fill-opacity="1" d=" M-36.486000061035156,145.76600646972656 C-36.486000061035156,145.76600646972656 -123.2020034790039,65.91799926757812 -123.2020034790039,65.91799926757812 C-123.2020034790039,65.91799926757812 -132.3249969482422,-22.74799919128418 -132.3249969482422,-22.74799919128418 C-132.3249969482422,-22.74799919128418 0,-540 0,-540 C0,-540 540,-540 540,-540 C540,-540 540,0 540,0 C540,0 540,540 540,540 C540,540 -36.486000061035156,145.76600646972656 -36.486000061035156,145.76600646972656z"></path></g></g></g></mask><g id="__lottie_element_58"><g transform="matrix(0.20000000298023224,0,0,0.20000000298023224,108,108)" opacity="1" style="display: block;"><g opacity="1" transform="matrix(1,0,0,1,0,0)"><path fill="rgb(0,97,255)" fill-opacity="1" d=" M-76.39399719238281,113.3219985961914 C-76.39399719238281,113.3219985961914 1.7209999561309814,109.99199676513672 1.7209999561309814,109.99199676513672 C1.7209999561309814,109.99199676513672 79.83699798583984,106.66200256347656 79.83699798583984,106.66200256347656 C79.83699798583984,106.66200256347656 540,0 540,0 C540,0 -540,-540 -540,-540 C-540,-540 -540,540 -540,540 C-540,540 -80.79000091552734,113.48300170898438 -80.79000091552734,113.48300170898438 C-80.79000091552734,113.48300170898438 -76.39399719238281,113.3219985961914 -76.39399719238281,113.3219985961914z"></path></g></g></g><mask id="__lottie_element_58_1" mask-type="alpha"><g><g transform="matrix(0.20000000298023224,0,0,0.20000000298023224,108,108)" opacity="1" style="display: block;"><g opacity="1" transform="matrix(1,0,0,1,0,0)"><path fill="rgb(0,97,255)" fill-opacity="1" d=" M-76.39399719238281,113.3219985961914 C-76.39399719238281,113.3219985961914 1.7209999561309814,109.99199676513672 1.7209999561309814,109.99199676513672 C1.7209999561309814,109.99199676513672 79.83699798583984,106.66200256347656 79.83699798583984,106.66200256347656 C79.83699798583984,106.66200256347656 540,0 540,0 C540,0 -540,-540 -540,-540 C-540,-540 -540,540 -540,540 C-540,540 -80.79000091552734,113.48300170898438 -80.79000091552734,113.48300170898438 C-80.79000091552734,113.48300170898438 -76.39399719238281,113.3219985961914 -76.39399719238281,113.3219985961914z"></path></g></g></g></mask><clipPath id="__lottie_element_62"><path d="M0,0 L1080,0 L1080,1080 L0,1080z"></path></clipPath><g id="__lottie_element_65"><g transform="matrix(0.20000000298023224,0,0,0.20000000298023224,108,108)" opacity="1" style="display: none;"><g opacity="1" transform="matrix(1,0,0,1,0,0)"><path fill="rgb(0,97,255)" fill-opacity="1" d=" M540,-540 C540,-540 540,0 540,0 C540,0 -15.404000282287598,239.08599853515625 -15.404000282287598,239.08599853515625 C-15.404000282287598,239.08599853515625 -32.23500061035156,140.08399963378906 -32.23500061035156,140.08399963378906 C-32.23500061035156,140.08399963378906 -104.47000122070312,63.9370002746582 -104.47000122070312,63.9370002746582 C-104.47000122070312,63.9370002746582 -540,-540 -540,-540 C-540,-540 540,-540 540,-540z"></path></g></g></g><mask id="__lottie_element_65_1" mask-type="alpha"><g><g transform="matrix(0.20000000298023224,0,0,0.20000000298023224,108,108)" opacity="1" style="display: none;"><g opacity="1" transform="matrix(1,0,0,1,0,0)"><path fill="rgb(0,97,255)" fill-opacity="1" d=" M540,-540 C540,-540 540,0 540,0 C540,0 -15.404000282287598,239.08599853515625 -15.404000282287598,239.08599853515625 C-15.404000282287598,239.08599853515625 -32.23500061035156,140.08399963378906 -32.23500061035156,140.08399963378906 C-32.23500061035156,140.08399963378906 -104.47000122070312,63.9370002746582 -104.47000122070312,63.9370002746582 C-104.47000122070312,63.9370002746582 -540,-540 -540,-540 C-540,-540 540,-540 540,-540z"></path></g></g></g></mask><g id="__lottie_element_71"><g transform="matrix(1,0,0,1,540,540)" opacity="1" style="display: block;"><g opacity="1" transform="matrix(1,0,0,1,0,0)"><path fill="rgb(0,97,255)" fill-opacity="1" d=" M-540,-540 C-540,-540 540,-540 540,-540 C540,-540 540,0 540,0 C540,0 103.41300201416016,95.87699890136719 103.41300201416016,95.87699890136719 C103.41300201416016,95.87699890136719 -15.479000091552734,142.35400390625 -15.479000091552734,142.35400390625 C-15.479000091552734,142.35400390625 -29.534000396728516,232.04600524902344 -29.534000396728516,232.04600524902344 C-29.534000396728516,232.04600524902344 -540,-540 -540,-540z"></path></g></g></g><mask id="__lottie_element_71_1" mask-type="alpha"><g><g transform="matrix(1,0,0,1,540,540)" opacity="1" style="display: block;"><g opacity="1" transform="matrix(1,0,0,1,0,0)"><path fill="rgb(0,97,255)" fill-opacity="1" d=" M-540,-540 C-540,-540 540,-540 540,-540 C540,-540 540,0 540,0 C540,0 103.41300201416016,95.87699890136719 103.41300201416016,95.87699890136719 C103.41300201416016,95.87699890136719 -15.479000091552734,142.35400390625 -15.479000091552734,142.35400390625 C-15.479000091552734,142.35400390625 -29.534000396728516,232.04600524902344 -29.534000396728516,232.04600524902344 C-29.534000396728516,232.04600524902344 -540,-540 -540,-540z"></path></g></g></g></mask><g id="__lottie_element_46"><g transform="matrix(0.20000000298023224,0,0,0.20000000298023224,108,108)" opacity="1" style="display: block;"><g opacity="1" transform="matrix(1,0,0,1,0,0)"><path fill="rgb(0,97,255)" fill-opacity="1" d=" M-540,0 C-540,0 -59.51900100708008,112.8219985961914 -59.51900100708008,112.8219985961914 C-59.51900100708008,112.8219985961914 100.73400115966797,105.73799896240234 100.73400115966797,105.73799896240234 C100.73400115966797,105.73799896240234 106.95899963378906,245.27099609375 106.95899963378906,245.27099609375 C106.95899963378906,245.27099609375 540,0 540,0 C540,0 540,-540 540,-540 C540,-540 -540,-540 -540,-540 C-540,-540 -540,0 -540,0z"></path></g></g></g><g id="__lottie_element_40"><g transform="matrix(0.20000000298023224,0,0,0.20000000298023224,108,108)" opacity="1" style="display: none;"><g opacity="1" transform="matrix(1,0,0,1,0,0)"><path fill="rgb(0,97,255)" fill-opacity="1" d=" M-196.75999450683594,21.44099998474121 C-196.75999450683594,21.44099998474121 -196.75999450683594,21.44099998474121 -196.75999450683594,21.44099998474121 C-196.75999450683594,21.44099998474121 -97.28199768066406,83.90699768066406 -97.28199768066406,83.90699768066406 C-97.28199768066406,83.90699768066406 540,0 540,0 C540,0 540,-540 540,-540 C540,-540 -540,-540 -540,-540 C-540,-540 -540,0 -540,0 C-540,0 -196.75999450683594,21.44099998474121 -196.75999450683594,21.44099998474121z"></path></g></g></g><g id="__lottie_element_34"><g transform="matrix(0.20000000298023224,0,0,0.20000000298023224,108,108)" opacity="1" style="display: block;"><g opacity="1" transform="matrix(1,0,0,1,0,0)"><path fill="rgb(0,97,255)" fill-opacity="1" d=" M-36.486000061035156,145.76600646972656 C-36.486000061035156,145.76600646972656 -123.2020034790039,65.91799926757812 -123.2020034790039,65.91799926757812 C-123.2020034790039,65.91799926757812 -132.3249969482422,-22.74799919128418 -132.3249969482422,-22.74799919128418 C-132.3249969482422,-22.74799919128418 0,-540 0,-540 C0,-540 540,-540 540,-540 C540,-540 540,0 540,0 C540,0 540,540 540,540 C540,540 -36.486000061035156,145.76600646972656 -36.486000061035156,145.76600646972656z"></path></g></g></g><g id="__lottie_element_58"><g transform="matrix(0.20000000298023224,0,0,0.20000000298023224,108,108)" opacity="1" style="display: block;"><g opacity="1" transform="matrix(1,0,0,1,0,0)"><path fill="rgb(0,97,255)" fill-opacity="1" d=" M-76.39399719238281,113.3219985961914 C-76.39399719238281,113.3219985961914 1.7209999561309814,109.99199676513672 1.7209999561309814,109.99199676513672 C1.7209999561309814,109.99199676513672 79.83699798583984,106.66200256347656 79.83699798583984,106.66200256347656 C79.83699798583984,106.66200256347656 540,0 540,0 C540,0 -540,-540 -540,-540 C-540,-540 -540,540 -540,540 C-540,540 -80.79000091552734,113.48300170898438 -80.79000091552734,113.48300170898438 C-80.79000091552734,113.48300170898438 -76.39399719238281,113.3219985961914 -76.39399719238281,113.3219985961914z"></path></g></g></g><g id="__lottie_element_65"><g transform="matrix(0.20000000298023224,0,0,0.20000000298023224,108,108)" opacity="1" style="display: none;"><g opacity="1" transform="matrix(1,0,0,1,0,0)"><path fill="rgb(0,97,255)" fill-opacity="1" d=" M540,-540 C540,-540 540,0 540,0 C540,0 -15.404000282287598,239.08599853515625 -15.404000282287598,239.08599853515625 C-15.404000282287598,239.08599853515625 -32.23500061035156,140.08399963378906 -32.23500061035156,140.08399963378906 C-32.23500061035156,140.08399963378906 -104.47000122070312,63.9370002746582 -104.47000122070312,63.9370002746582 C-104.47000122070312,63.9370002746582 -540,-540 -540,-540 C-540,-540 540,-540 540,-540z"></path></g></g></g><g id="__lottie_element_71"><g transform="matrix(1,0,0,1,540,540)" opacity="1" style="display: block;"><g opacity="1" transform="matrix(1,0,0,1,0,0)"><path fill="rgb(0,97,255)" fill-opacity="1" d=" M-540,-540 C-540,-540 540,-540 540,-540 C540,-540 540,0 540,0 C540,0 103.41300201416016,95.87699890136719 103.41300201416016,95.87699890136719 C103.41300201416016,95.87699890136719 -15.479000091552734,142.35400390625 -15.479000091552734,142.35400390625 C-15.479000091552734,142.35400390625 -29.534000396728516,232.04600524902344 -29.534000396728516,232.04600524902344 C-29.534000396728516,232.04600524902344 -540,-540 -540,-540z"></path></g></g></g></defs><g clip-path="url(#__lottie_element_29)"><g mask="url(#__lottie_element_65_1)" style="display: none;"><g clip-path="url(#__lottie_element_62)" transform="matrix(0.20000000298023224,0,0,0.20000000298023224,-0.0000016093254089355469,-0.0000016093254089355469)" opacity="1"><g mask="url(#__lottie_element_71_1)" style="display: block;"><g transform="matrix(1,0,0,1,540,540)" opacity="1"><g opacity="1" transform="matrix(1,0,0,1,0,0)"><path fill="#1A1918" fill-opacity="1" d=" M-23.648000717163086,235.2760009765625 C-23.648000717163086,235.2760009765625 97.26300048828125,187.83900451660156 97.26300048828125,187.83900451660156 C97.26300048828125,187.83900451660156 23.5310001373291,110.38899993896484 23.5310001373291,110.38899993896484 C23.5310001373291,110.38899993896484 -97.1449966430664,157.5330047607422 -97.1449966430664,157.5330047607422 C-97.1449966430664,157.5330047607422 -23.648000717163086,235.2760009765625 -23.648000717163086,235.2760009765625z" stroke="#FFFFFF" stroke-width="5px"></path></g></g></g></g></g><g mask="url(#__lottie_element_34_1)" style="display: block;"><g transform="matrix(0.20000000298023224,0,0,0.20000000298023224,108,108)" opacity="1"><g opacity="1" transform="matrix(1,0,0,1,0,0)"><path fill="#1A1918" fill-opacity="1" d=" M-72.02999877929688,76.19599914550781 C-72.02999877929688,76.19599914550781 66.33599853515625,70.08899688720703 66.33599853515625,70.08899688720703 C66.33599853515625,70.08899688720703 60.39899826049805,-68.43699645996094 60.39899826049805,-68.43699645996094 C60.39899826049805,-68.43699645996094 -77.98200225830078,-62.362998962402344 -77.98200225830078,-62.362998962402344 C-77.98200225830078,-62.362998962402344 -72.02999877929688,76.19599914550781 -72.02999877929688,76.19599914550781z" stroke="#FFFFFF" stroke-width="5px"></path></g></g></g><g mask="url(#__lottie_element_40_1)" style="display: none;"><g transform="matrix(0.20000000298023224,0,0,0.20000000298023224,108,108)" opacity="1"><g opacity="1" transform="matrix(1,0,0,1,0,0)"><path fill="#1A1918" fill-opacity="1" d=" M-196.49400329589844,-103.66899871826172 C-196.49400329589844,-103.66899871826172 -98.22100067138672,-41.43899917602539 -98.22100067138672,-41.43899917602539 C-98.22100067138672,-41.43899917602539 -0.1770000010728836,-103.73400115966797 -0.1770000010728836,-103.73400115966797 C-0.1770000010728836,-103.73400115966797 -99.14900207519531,-166.54600524902344 -99.14900207519531,-166.54600524902344 C-99.14900207519531,-166.54600524902344 -196.49400329589844,-103.66899871826172 -196.49400329589844,-103.66899871826172z" stroke="#FFFFFF" stroke-width="5px"></path></g></g></g><g mask="url(#__lottie_element_58_1)" style="display: block;"><g transform="matrix(0.20000000298023224,0,0,0.20000000298023224,108,108)" opacity="1"><g opacity="1" transform="matrix(1,0,0,1,0,0)"><path fill="#1A1918" fill-opacity="1" d=" M-123.2020034790039,65.91799926757812 C-123.2020034790039,65.91799926757812 -36.486000061035156,145.76600646972656 -36.486000061035156,145.76600646972656 C-36.486000061035156,145.76600646972656 -45.89500045776367,57.03499984741211 -45.89500045776367,57.03499984741211 C-45.89500045776367,57.03499984741211 -132.3249969482422,-22.74799919128418 -132.3249969482422,-22.74799919128418 C-132.3249969482422,-22.74799919128418 -123.2020034790039,65.91799926757812 -123.2020034790039,65.91799926757812z" stroke="#FFFFFF" stroke-width="5px"></path></g></g></g><g mask="url(#__lottie_element_46_1)" style="display: block;"><g transform="matrix(0.20000000298023224,0,0,0.20000000298023224,108,108)" opacity="1"><g opacity="1" transform="matrix(1,0,0,1,0,0)"><path fill="#1A1918" fill-opacity="1" d=" M46.051998138427734,142.11199951171875 C46.051998138427734,142.11199951171875 132.73699951171875,54.62699890136719 132.73699951171875,54.62699890136719 C132.73699951171875,54.62699890136719 122.70700073242188,-33.95899963378906 122.70700073242188,-33.95899963378906 C122.70700073242188,-33.95899963378906 36.35200119018555,53.40700149536133 36.35200119018555,53.40700149536133 C36.35200119018555,53.40700149536133 46.051998138427734,142.11199951171875 46.051998138427734,142.11199951171875z" stroke="#FFFFFF" stroke-width="5px"></path></g></g></g><g transform="matrix(0.20000000298023224,0,0,0.20000000298023224,108,108)" opacity="1" style="display: none;"><g opacity="1" transform="matrix(1,0,0,1,0,0)"><path fill="#1A1918" fill-opacity="1" d=" M-196.75999450683594,21.44099998474121 C-196.75999450683594,21.44099998474121 -97.28199768066406,83.90699768066406 -97.28199768066406,83.90699768066406 C-97.28199768066406,83.90699768066406 0.5490000247955322,21.3799991607666 0.5490000247955322,21.3799991607666 C0.5490000247955322,21.3799991607666 -98.21900177001953,-41.667999267578125 -98.21900177001953,-41.667999267578125 C-98.21900177001953,-41.667999267578125 -196.75999450683594,21.44099998474121 -196.75999450683594,21.44099998474121z" stroke="#FFFFFF" stroke-width="5px"></path></g></g><g transform="matrix(0.20000000298023224,0,0,0.20000000298023224,108,108)" opacity="1" style="display: none;"><g opacity="1" transform="matrix(1,0,0,1,0,0)"><path fill="#1A1918" fill-opacity="1" d=" M-97.55599975585938,105.2300033569336 C-97.55599975585938,105.2300033569336 1.0859999656677246,167.66600036621094 1.0859999656677246,167.66600036621094 C1.0859999656677246,167.66600036621094 99.00399780273438,104.76599884033203 99.00399780273438,104.76599884033203 C99.00399780273438,104.76599884033203 0.3619999885559082,42.19300079345703 0.3619999885559082,42.19300079345703 C0.3619999885559082,42.19300079345703 -97.55599975585938,105.2300033569336 -97.55599975585938,105.2300033569336z" stroke="#FFFFFF" stroke-width="5px"></path></g></g><g transform="matrix(0.20000000298023224,0,0,0.20000000298023224,108,108)" opacity="1" style="display: none;"><g opacity="1" transform="matrix(1,0,0,1,0,0)"><path fill="#1A1918" fill-opacity="1" d=" M-2.61899995803833,164.4600067138672 C-2.61899995803833,164.4600067138672 97.27100372314453,103.6719970703125 97.27100372314453,103.6719970703125 C97.27100372314453,103.6719970703125 2.6059999465942383,39.8489990234375 2.6059999465942383,39.8489990234375 C2.6059999465942383,39.8489990234375 -97.25800323486328,100.32599639892578 -97.25800323486328,100.32599639892578 C-97.25800323486328,100.32599639892578 -2.61899995803833,164.4600067138672 -2.61899995803833,164.4600067138672z" stroke="#FFFFFF" stroke-width="5px"></path></g></g></g></svg>