<svg xmlns="http://www.w3.org/2000/svg" xmlns:xlink="http://www.w3.org/1999/xlink" viewBox="0 0 216 216" width="216" height="216" preserveAspectRatio="xMidYMid meet" style="width: 100%; height: 100%; transform: translate3d(0px, 0px, 0px); content-visibility: visible;"><defs><clipPath id="__lottie_element_3"><rect width="216" height="216" x="0" y="0"></rect></clipPath><g id="__lottie_element_8"><g transform="matrix(0.20000000298023224,0,0,0.20000000298023224,108,108)" opacity="1" style="display: block;"><g opacity="1" transform="matrix(1,0,0,1,0,0)"><path fill="rgb(0,97,255)" fill-opacity="1" d=" M-98.40299987792969,-42.32600021362305 C-98.40299987792969,-42.32600021362305 -196.31300354003906,-104.38999938964844 -196.31300354003906,-104.38999938964844 C-196.31300354003906,-104.38999938964844 -98.61199951171875,-167.03599548339844 -98.61199951171875,-167.03599548339844 C-98.61199951171875,-167.03599548339844 0,-540 0,-540 C0,-540 540,-540 540,-540 C540,-540 540,0 540,0 C540,0 540,540 540,540 C540,540 -98.40299987792969,-42.32600021362305 -98.40299987792969,-42.32600021362305z"></path></g></g></g><g id="__lottie_element_14"><g transform="matrix(0.20000000298023224,0,0,0.20000000298023224,108,108)" opacity="1" style="display: block;"><g opacity="1" transform="matrix(1,0,0,1,0,0)"><path fill="rgb(0,97,255)" fill-opacity="1" d=" M-197.30799865722656,20.954999923706055 C-197.30799865722656,20.954999923706055 -197.30799865722656,20.954999923706055 -197.30799865722656,20.954999923706055 C-197.30799865722656,20.954999923706055 -98.19200134277344,83.64900207519531 -98.19200134277344,83.64900207519531 C-98.19200134277344,83.64900207519531 540,0 540,0 C540,0 540,-540 540,-540 C540,-540 -540,-540 -540,-540 C-540,-540 -540,0 -540,0 C-540,0 -197.30799865722656,20.954999923706055 -197.30799865722656,20.954999923706055z"></path></g></g></g><g id="__lottie_element_20"><g transform="matrix(0.20000000298023224,0,0,0.20000000298023224,108,108)" opacity="1" style="display: block;"><g opacity="1" transform="matrix(1,0,0,1,0,0)"><path fill="rgb(0,97,255)" fill-opacity="1" d=" M-540,0 C-540,0 -197.30799865722656,20.954999923706055 -197.30799865722656,20.954999923706055 C-197.30799865722656,20.954999923706055 -98.90399932861328,83.64900207519531 -98.90399932861328,83.64900207519531 C-98.90399932861328,83.64900207519531 -98.61000061035156,190.79100036621094 -98.61000061035156,190.79100036621094 C-98.61000061035156,190.79100036621094 540,0 540,0 C540,0 540,-540 540,-540 C540,-540 -540,-540 -540,-540 C-540,-540 -540,0 -540,0z"></path></g></g></g><mask id="__lottie_element_20_1" mask-type="alpha"><g><g transform="matrix(0.20000000298023224,0,0,0.20000000298023224,108,108)" opacity="1" style="display: block;"><g opacity="1" transform="matrix(1,0,0,1,0,0)"><path fill="rgb(0,97,255)" fill-opacity="1" d=" M-540,0 C-540,0 -197.30799865722656,20.954999923706055 -197.30799865722656,20.954999923706055 C-197.30799865722656,20.954999923706055 -98.90399932861328,83.64900207519531 -98.90399932861328,83.64900207519531 C-98.90399932861328,83.64900207519531 -98.61000061035156,190.79100036621094 -98.61000061035156,190.79100036621094 C-98.61000061035156,190.79100036621094 540,0 540,0 C540,0 540,-540 540,-540 C540,-540 -540,-540 -540,-540 C-540,-540 -540,0 -540,0z"></path></g></g></g></mask><mask id="__lottie_element_14_1" mask-type="alpha"><g><g transform="matrix(0.20000000298023224,0,0,0.20000000298023224,108,108)" opacity="1" style="display: block;"><g opacity="1" transform="matrix(1,0,0,1,0,0)"><path fill="rgb(0,97,255)" fill-opacity="1" d=" M-197.30799865722656,20.954999923706055 C-197.30799865722656,20.954999923706055 -197.30799865722656,20.954999923706055 -197.30799865722656,20.954999923706055 C-197.30799865722656,20.954999923706055 -98.19200134277344,83.64900207519531 -98.19200134277344,83.64900207519531 C-98.19200134277344,83.64900207519531 540,0 540,0 C540,0 540,-540 540,-540 C540,-540 -540,-540 -540,-540 C-540,-540 -540,0 -540,0 C-540,0 -197.30799865722656,20.954999923706055 -197.30799865722656,20.954999923706055z"></path></g></g></g></mask><mask id="__lottie_element_8_1" mask-type="alpha"><g><g transform="matrix(0.20000000298023224,0,0,0.20000000298023224,108,108)" opacity="1" style="display: block;"><g opacity="1" transform="matrix(1,0,0,1,0,0)"><path fill="rgb(0,97,255)" fill-opacity="1" d=" M-98.40299987792969,-42.32600021362305 C-98.40299987792969,-42.32600021362305 -196.31300354003906,-104.38999938964844 -196.31300354003906,-104.38999938964844 C-196.31300354003906,-104.38999938964844 -98.61199951171875,-167.03599548339844 -98.61199951171875,-167.03599548339844 C-98.61199951171875,-167.03599548339844 0,-540 0,-540 C0,-540 540,-540 540,-540 C540,-540 540,0 540,0 C540,0 540,540 540,540 C540,540 -98.40299987792969,-42.32600021362305 -98.40299987792969,-42.32600021362305z"></path></g></g></g></mask><clipPath id="__lottie_element_78"><path d="M0,0 L1080,0 L1080,1080 L0,1080z"></path></clipPath><g id="__lottie_element_81"><g transform="matrix(0.20000000298023224,0,0,0.20000000298023224,108,108)" opacity="1" style="display: none;"><g opacity="1" transform="matrix(1,0,0,1,0,0)"><path fill="rgb(0,97,255)" fill-opacity="1" d=" M540,-540 C540,-540 540,0 540,0 C540,0 -12.625,250.77999877929688 -12.625,250.77999877929688 C-12.625,250.77999877929688 -21.631999969482422,148.56399536132812 -21.631999969482422,148.56399536132812 C-21.631999969482422,148.56399536132812 -101.46099853515625,75.5719985961914 -101.46099853515625,75.5719985961914 C-101.46099853515625,75.5719985961914 -540,-540 -540,-540 C-540,-540 540,-540 540,-540z"></path></g></g></g><mask id="__lottie_element_81_1" mask-type="alpha"><g><g transform="matrix(0.20000000298023224,0,0,0.20000000298023224,108,108)" opacity="1" style="display: none;"><g opacity="1" transform="matrix(1,0,0,1,0,0)"><path fill="rgb(0,97,255)" fill-opacity="1" d=" M540,-540 C540,-540 540,0 540,0 C540,0 -12.625,250.77999877929688 -12.625,250.77999877929688 C-12.625,250.77999877929688 -21.631999969482422,148.56399536132812 -21.631999969482422,148.56399536132812 C-21.631999969482422,148.56399536132812 -101.46099853515625,75.5719985961914 -101.46099853515625,75.5719985961914 C-101.46099853515625,75.5719985961914 -540,-540 -540,-540 C-540,-540 540,-540 540,-540z"></path></g></g></g></mask><g id="__lottie_element_87"><g transform="matrix(1,0,0,1,540,540)" opacity="1" style="display: block;"><g opacity="1" transform="matrix(1,0,0,1,0,0)"><path fill="rgb(0,97,255)" fill-opacity="1" d=" M-540,-540 C-540,-540 540,-540 540,-540 C540,-540 540,0 540,0 C540,0 101.50700378417969,97.875 101.50700378417969,97.875 C101.50700378417969,97.875 -12.368000030517578,149.1999969482422 -12.368000030517578,149.1999969482422 C-12.368000030517578,149.1999969482422 -21.033000946044922,247.1820068359375 -21.033000946044922,247.1820068359375 C-21.033000946044922,247.1820068359375 -540,-540 -540,-540z"></path></g></g></g><mask id="__lottie_element_87_1" mask-type="alpha"><g><g transform="matrix(1,0,0,1,540,540)" opacity="1" style="display: block;"><g opacity="1" transform="matrix(1,0,0,1,0,0)"><path fill="rgb(0,97,255)" fill-opacity="1" d=" M-540,-540 C-540,-540 540,-540 540,-540 C540,-540 540,0 540,0 C540,0 101.50700378417969,97.875 101.50700378417969,97.875 C101.50700378417969,97.875 -12.368000030517578,149.1999969482422 -12.368000030517578,149.1999969482422 C-12.368000030517578,149.1999969482422 -21.033000946044922,247.1820068359375 -21.033000946044922,247.1820068359375 C-21.033000946044922,247.1820068359375 -540,-540 -540,-540z"></path></g></g></g></mask><g id="__lottie_element_20"><g transform="matrix(0.20000000298023224,0,0,0.20000000298023224,108,108)" opacity="1" style="display: block;"><g opacity="1" transform="matrix(1,0,0,1,0,0)"><path fill="rgb(0,97,255)" fill-opacity="1" d=" M-540,0 C-540,0 -197.30799865722656,20.954999923706055 -197.30799865722656,20.954999923706055 C-197.30799865722656,20.954999923706055 -98.90399932861328,83.64900207519531 -98.90399932861328,83.64900207519531 C-98.90399932861328,83.64900207519531 -98.61000061035156,190.79100036621094 -98.61000061035156,190.79100036621094 C-98.61000061035156,190.79100036621094 540,0 540,0 C540,0 540,-540 540,-540 C540,-540 -540,-540 -540,-540 C-540,-540 -540,0 -540,0z"></path></g></g></g><g id="__lottie_element_14"><g transform="matrix(0.20000000298023224,0,0,0.20000000298023224,108,108)" opacity="1" style="display: block;"><g opacity="1" transform="matrix(1,0,0,1,0,0)"><path fill="rgb(0,97,255)" fill-opacity="1" d=" M-197.30799865722656,20.954999923706055 C-197.30799865722656,20.954999923706055 -197.30799865722656,20.954999923706055 -197.30799865722656,20.954999923706055 C-197.30799865722656,20.954999923706055 -98.19200134277344,83.64900207519531 -98.19200134277344,83.64900207519531 C-98.19200134277344,83.64900207519531 540,0 540,0 C540,0 540,-540 540,-540 C540,-540 -540,-540 -540,-540 C-540,-540 -540,0 -540,0 C-540,0 -197.30799865722656,20.954999923706055 -197.30799865722656,20.954999923706055z"></path></g></g></g><g id="__lottie_element_8"><g transform="matrix(0.20000000298023224,0,0,0.20000000298023224,108,108)" opacity="1" style="display: block;"><g opacity="1" transform="matrix(1,0,0,1,0,0)"><path fill="rgb(0,97,255)" fill-opacity="1" d=" M-98.40299987792969,-42.32600021362305 C-98.40299987792969,-42.32600021362305 -196.31300354003906,-104.38999938964844 -196.31300354003906,-104.38999938964844 C-196.31300354003906,-104.38999938964844 -98.61199951171875,-167.03599548339844 -98.61199951171875,-167.03599548339844 C-98.61199951171875,-167.03599548339844 0,-540 0,-540 C0,-540 540,-540 540,-540 C540,-540 540,0 540,0 C540,0 540,540 540,540 C540,540 -98.40299987792969,-42.32600021362305 -98.40299987792969,-42.32600021362305z"></path></g></g></g><g id="__lottie_element_81"><g transform="matrix(0.20000000298023224,0,0,0.20000000298023224,108,108)" opacity="1" style="display: none;"><g opacity="1" transform="matrix(1,0,0,1,0,0)"><path fill="rgb(0,97,255)" fill-opacity="1" d=" M540,-540 C540,-540 540,0 540,0 C540,0 -12.625,250.77999877929688 -12.625,250.77999877929688 C-12.625,250.77999877929688 -21.631999969482422,148.56399536132812 -21.631999969482422,148.56399536132812 C-21.631999969482422,148.56399536132812 -101.46099853515625,75.5719985961914 -101.46099853515625,75.5719985961914 C-101.46099853515625,75.5719985961914 -540,-540 -540,-540 C-540,-540 540,-540 540,-540z"></path></g></g></g><g id="__lottie_element_87"><g transform="matrix(1,0,0,1,540,540)" opacity="1" style="display: block;"><g opacity="1" transform="matrix(1,0,0,1,0,0)"><path fill="rgb(0,97,255)" fill-opacity="1" d=" M-540,-540 C-540,-540 540,-540 540,-540 C540,-540 540,0 540,0 C540,0 101.50700378417969,97.875 101.50700378417969,97.875 C101.50700378417969,97.875 -12.368000030517578,149.1999969482422 -12.368000030517578,149.1999969482422 C-12.368000030517578,149.1999969482422 -21.033000946044922,247.1820068359375 -21.033000946044922,247.1820068359375 C-21.033000946044922,247.1820068359375 -540,-540 -540,-540z"></path></g></g></g></defs><g clip-path="url(#__lottie_element_3)"><g mask="url(#__lottie_element_81_1)" style="display: none;"><g clip-path="url(#__lottie_element_78)" transform="matrix(0.20000000298023224,0,0,0.20000000298023224,-0.0000016093254089355469,-0.0000016093254089355469)" opacity="1"><g mask="url(#__lottie_element_87_1)" style="display: block;"><g transform="matrix(1,0,0,1,540,540)" opacity="1"><g opacity="1" transform="matrix(1,0,0,1,0,0)"><path fill="#055463" fill-opacity="1" d=" M-17.261999130249023,246.60400390625 C-17.261999130249023,246.60400390625 98.55899810791016,194.2030029296875 98.55899810791016,194.2030029296875 C98.55899810791016,194.2030029296875 17.176000595092773,119.9800033569336 17.176000595092773,119.9800033569336 C17.176000595092773,119.9800033569336 -98.47100067138672,172.0709991455078 -98.47100067138672,172.0709991455078 C-98.47100067138672,172.0709991455078 -17.261999130249023,246.60400390625 -17.261999130249023,246.60400390625z"></path></g></g></g></g></g><g mask="url(#__lottie_element_8_1)" style="display: block;"><g transform="matrix(0.20000000298023224,0,0,0.20000000298023224,108,108)" opacity="1"><g opacity="1" transform="matrix(1,0,0,1,0,0)"><path fill="#055463" fill-opacity="1" d=" M0,-104.38999938964844 C0,-104.38999938964844 98.40299987792969,-42.32600021362305 98.40299987792969,-42.32600021362305 C98.40299987792969,-42.32600021362305 196.31300354003906,-104.38999938964844 196.31300354003906,-104.38999938964844 C196.31300354003906,-104.38999938964844 98.61299896240234,-167.03599548339844 98.61299896240234,-167.03599548339844 C98.61299896240234,-167.03599548339844 0,-104.38999938964844 0,-104.38999938964844z"></path></g></g></g><g mask="url(#__lottie_element_14_1)" style="display: block;"><g transform="matrix(0.20000000298023224,0,0,0.20000000298023224,108,108)" opacity="1"><g opacity="1" transform="matrix(1,0,0,1,0,0)"><path fill="#055463" fill-opacity="1" d=" M-196.31300354003906,-104.38999938964844 C-196.31300354003906,-104.38999938964844 -98.40299987792969,-42.32600021362305 -98.40299987792969,-42.32600021362305 C-98.40299987792969,-42.32600021362305 0,-104.38999938964844 0,-104.38999938964844 C0,-104.38999938964844 -98.61199951171875,-167.03599548339844 -98.61199951171875,-167.03599548339844 C-98.61199951171875,-167.03599548339844 -196.31300354003906,-104.38999938964844 -196.31300354003906,-104.38999938964844z"></path></g></g></g><g mask="url(#__lottie_element_20_1)" style="display: block;"><g transform="matrix(0.20000000298023224,0,0,0.20000000298023224,108,108)" opacity="1"><g opacity="1" transform="matrix(1,0,0,1,0,0)"><path fill="#055463" fill-opacity="1" d=" M-0.0010000000474974513,20.954999923706055 C-0.0010000000474974513,20.954999923706055 98.19000244140625,83.64900207519531 98.19000244140625,83.64900207519531 C98.19000244140625,83.64900207519531 197.3070068359375,20.954999923706055 197.3070068359375,20.954999923706055 C197.3070068359375,20.954999923706055 98.40299987792969,-42.32600021362305 98.40299987792969,-42.32600021362305 C98.40299987792969,-42.32600021362305 -0.0010000000474974513,20.954999923706055 -0.0010000000474974513,20.954999923706055z"></path></g></g></g><g transform="matrix(0.20000000298023224,0,0,0.20000000298023224,108,108)" opacity="1" style="display: block;"><g opacity="1" transform="matrix(1,0,0,1,0,0)"><path fill="#055463" fill-opacity="1" d=" M-197.30799865722656,20.954999923706055 C-197.30799865722656,20.954999923706055 -98.19200134277344,83.64900207519531 -98.19200134277344,83.64900207519531 C-98.19200134277344,83.64900207519531 -0.0010000000474974513,20.954999923706055 -0.0010000000474974513,20.954999923706055 C-0.0010000000474974513,20.954999923706055 -98.40299987792969,-42.32600021362305 -98.40299987792969,-42.32600021362305 C-98.40299987792969,-42.32600021362305 -197.30799865722656,20.954999923706055 -197.30799865722656,20.954999923706055z"></path></g></g><g transform="matrix(0.20000000298023224,0,0,0.20000000298023224,108,108)" opacity="1" style="display: block;"><g opacity="1" transform="matrix(1,0,0,1,0,0)"><path fill="#055463" fill-opacity="1" d=" M-98.48799896240234,104.78500366210938 C-98.48799896240234,104.78500366210938 -0.0020000000949949026,167.58299255371094 -0.0020000000949949026,167.58299255371094 C-0.0020000000949949026,167.58299255371094 98.48600006103516,104.78500366210938 98.48600006103516,104.78500366210938 C98.48600006103516,104.78500366210938 -0.0010000000474974513,41.8489990234375 -0.0010000000474974513,41.8489990234375 C-0.0010000000474974513,41.8489990234375 -98.48799896240234,104.78500366210938 -98.48799896240234,104.78500366210938z"></path></g></g><g transform="matrix(0.20000000298023224,0,0,0.20000000298023224,108,108)" opacity="1" style="display: none;"><g opacity="1" transform="matrix(1,0,0,1,0,0)"><path fill="#055463" fill-opacity="1" d=" M-2.61899995803833,164.4600067138672 C-2.61899995803833,164.4600067138672 97.27100372314453,103.6719970703125 97.27100372314453,103.6719970703125 C97.27100372314453,103.6719970703125 2.6059999465942383,39.8489990234375 2.6059999465942383,39.8489990234375 C2.6059999465942383,39.8489990234375 -97.25800323486328,100.32599639892578 -97.25800323486328,100.32599639892578 C-97.25800323486328,100.32599639892578 -2.61899995803833,164.4600067138672 -2.61899995803833,164.4600067138672z"></path></g></g></g></svg>